<?xml version="1.0" encoding="UTF-8"?>
<!DOCTYPE svg PUBLIC "-//W3C//DTD SVG 1.1//EN" "http://www.w3.org/Graphics/SVG/1.1/DTD/svg11.dtd">
<!-- Creator: CorelDRAW 2019 (64-Bit) -->
<svg xmlns="http://www.w3.org/2000/svg" xml:space="preserve" width="0.334339in" height="0.267323in" version="1.1" style="shape-rendering:geometricPrecision; text-rendering:geometricPrecision; image-rendering:optimizeQuality; fill-rule:evenodd; clip-rule:evenodd"
viewBox="0 0 10.95 8.75"
 xmlns:xlink="http://www.w3.org/1999/xlink">
 <defs>
  <style type="text/css">
   <![CDATA[
    .fil0 {fill:url(#id0)}
   ]]>
  </style>
  <linearGradient id="id0" gradientUnits="userSpaceOnUse" x1="6.99" y1="0.04" x2="4.64" y2="7.95">
   <stop offset="0" style="stop-opacity:1; stop-color:#FC8901"/>
   <stop offset="1" style="stop-opacity:1; stop-color:#513D24"/>
  </linearGradient>
 </defs>
 <g id="Layer_x0020_1">
  <metadata id="CorelCorpID_0Corel-Layer"/>
  <path class="fil0" d="M8.34 7.23c-0.07,0.02 -0.33,0.16 -0.7,0.23 -0.52,0.1 -1.13,0.05 -1.6,-0.18 -0.25,-0.12 -0.35,-0.18 -0.58,-0.36 -0.1,-0.08 -0.16,-0.14 -0.24,-0.22l-0.11 -0.12c-0.04,-0.04 -0.07,-0.09 -0.1,-0.14l-0.14 -0.21c-0.02,-0.03 -0.03,-0.05 -0.04,-0.08 -0.06,-0.1 -0.1,-0.21 -0.15,-0.32 -0.18,-0.47 -0.24,-1.07 -0.09,-1.62 0.1,-0.48 0.47,-1.03 0.85,-1.34 0.06,-0.05 0.12,-0.09 0.18,-0.14 0.14,-0.08 0.24,-0.16 0.42,-0.23 0.25,-0.1 0.42,-0.16 0.7,-0.2 0.07,-0.01 0.13,-0.01 0.2,-0.02 0.34,-0.05 0.86,0.05 1.16,0.17 0.16,0.06 0.18,0.08 0.31,0.15 0.46,0.23 0.86,0.69 1.1,1.15 0.05,0.11 0.09,0.21 0.13,0.33 0.07,0.22 0.13,0.48 0.13,0.78 0,0.68 -0.2,1.26 -0.63,1.75l-0.11 0.13c-0.15,0.15 -0.22,0.2 -0.39,0.33l-0.27 0.16c-0,0 -0.01,0 -0.01,0 -0.02,0.01 -0.01,0 -0.02,0.02zm2.57 -1.6c0,-0.08 0.04,-0.25 0.04,-0.4 -0,-0.35 0.01,-0.45 -0.05,-0.81 -0.02,-0.13 -0.05,-0.25 -0.08,-0.36 -0.07,-0.27 -0.13,-0.39 -0.23,-0.63 -0.14,-0.33 -0.45,-0.8 -0.67,-1.07l-0.15 -0.17c-0.02,-0.03 -0.03,-0.03 -0.05,-0.06 -0.04,-0.04 -0.07,-0.07 -0.11,-0.11 -0.16,-0.2 -0.72,-0.67 -0.93,-0.82l-0.1 -0.07c-0.01,-0.01 -0.02,-0.02 -0.03,-0.03l-0.09 -0.07c-0.43,-0.32 -1,-0.81 -1.48,-0.98 -0.12,-0.04 -0.24,-0.05 -0.37,-0.01 -0.23,0.06 -0.34,0.15 -0.45,0.32l-0.13 0.19c-0.03,0.05 -0.06,0.08 -0.09,0.13l-0.81 1.16c-0.03,0.05 -0.06,0.08 -0.09,0.13 -0.03,0.05 -0.17,0.23 -0.18,0.27 -0.03,0.03 -0.1,0.13 -0.12,0.17 -0.09,-0.05 -0.45,-0.33 -0.58,-0.43 -0.17,-0.13 -0.64,-0.46 -0.81,-0.53 -0.11,-0.04 -0.24,-0.07 -0.35,-0.04 -0.15,0.03 -0.2,-0.02 -0.42,0.17 -0.03,0.02 -0.06,0.06 -0.08,0.09 -0.2,0.25 -0.23,0.64 -0.05,0.91 0.05,0.08 0.1,0.12 0.16,0.18 0.06,0.06 0.13,0.1 0.13,0.22 0,0.23 -0.23,0.34 -0.42,0.19 -0.03,-0.03 -0.06,-0.04 -0.09,-0.07 -0.28,-0.21 -0.61,-0.43 -0.9,-0.65 -0.29,-0.22 -0.67,-0.34 -1,-0.11 -0.02,0.01 -0.02,0.02 -0.04,0.03l-0.02 0.02c-0.19,0.19 -0.3,0.37 -0.26,0.69 0.06,0.4 0.4,0.58 0.72,0.8l0.54 0.39c0.13,0.09 1.4,0.99 1.43,1.04l-0.26 0.37c-0.04,0.06 -0.32,0.44 -0.33,0.48 0.03,0.01 0.07,0.04 0.09,0.06 0.03,0.03 0.06,0.05 0.1,0.07l1.74 1.28c0.13,0.1 0.25,0.19 0.39,0.28 0.07,0.05 0.13,0.09 0.2,0.13 0.08,0.04 0.14,0.08 0.21,0.12 0.08,0.04 0.14,0.08 0.22,0.12 0.08,0.04 0.15,0.08 0.22,0.11 0.16,0.07 0.3,0.13 0.47,0.19 0.17,0.06 0.33,0.11 0.52,0.15 0.37,0.08 0.66,0.11 1.04,0.11l0.04 0c0.06,-0 0.08,-0.01 0.14,-0.01 0.61,-0.03 1.07,-0.19 1.57,-0.45 0.08,-0.04 0.36,-0.22 0.4,-0.27 0.04,-0.01 0.16,-0.12 0.19,-0.15 0.24,-0.22 0.3,-0.28 0.52,-0.56 0.1,-0.14 0.2,-0.29 0.28,-0.44 0.03,-0.06 0.05,-0.1 0.08,-0.16 0.06,-0.11 0.1,-0.22 0.15,-0.33 0.06,-0.16 0.13,-0.38 0.17,-0.55 0.01,-0.06 0.02,-0.14 0.04,-0.19zm-5.31 -0.79c0,0.44 0.14,0.82 0.44,1.11l0.1 0.08c0.03,0.03 0.07,0.05 0.1,0.08 0.53,0.35 1.23,0.34 1.75,0 0.89,-0.57 0.92,-1.85 0.03,-2.45 -0.44,-0.29 -0.98,-0.33 -1.48,-0.14 -0.25,0.1 -0.48,0.27 -0.65,0.48 -0.11,0.14 -0.15,0.23 -0.21,0.38 -0,0 -0,0.01 -0,0.01 -0.05,0.11 -0.09,0.32 -0.09,0.44z"/>
 </g>
</svg>
