<?xml version="1.0" encoding="UTF-8"?>
<!DOCTYPE svg PUBLIC "-//W3C//DTD SVG 1.1//EN" "http://www.w3.org/Graphics/SVG/1.1/DTD/svg11.dtd">
<!-- Creator: CorelDRAW 2019 (64-Bit) -->
<svg xmlns="http://www.w3.org/2000/svg" xml:space="preserve" width="0.728413in" height="0.199992in" version="1.1" style="shape-rendering:geometricPrecision; text-rendering:geometricPrecision; image-rendering:optimizeQuality; fill-rule:evenodd; clip-rule:evenodd"
viewBox="0 0 63.75 17.5"
 xmlns:xlink="http://www.w3.org/1999/xlink">
 <defs>
  <style type="text/css">
   <![CDATA[
    .fil0 {fill:url(#id0)}
    .fil1 {fill:url(#id1)}
   ]]>
  </style>
  <linearGradient id="id0" gradientUnits="userSpaceOnUse" x1="13.97" y1="0.07" x2="9.29" y2="15.91">
   <stop offset="0" style="stop-opacity:1; stop-color:#FC8901"/>
   <stop offset="1" style="stop-opacity:1; stop-color:#513D24"/>
  </linearGradient>
  <linearGradient id="id1" gradientUnits="userSpaceOnUse" xlink:href="#id0" x1="45.57" y1="7.62" x2="45.28" y2="13.14">
  </linearGradient>
 </defs>
 <g id="Layer_x0020_1">
  <metadata id="CorelCorpID_0Corel-Layer"/>
  <path class="fil0" d="M16.69 14.46c-0.15,0.03 -0.66,0.33 -1.4,0.46 -1.03,0.19 -2.26,0.09 -3.21,-0.36 -0.5,-0.24 -0.7,-0.36 -1.15,-0.72 -0.19,-0.15 -0.32,-0.28 -0.49,-0.45l-0.21 -0.24c-0.07,-0.09 -0.14,-0.18 -0.21,-0.27l-0.28 -0.42c-0.03,-0.05 -0.05,-0.09 -0.09,-0.15 -0.12,-0.2 -0.2,-0.42 -0.29,-0.64 -0.37,-0.94 -0.48,-2.14 -0.18,-3.25 0.19,-0.95 0.94,-2.06 1.7,-2.67 0.12,-0.1 0.24,-0.18 0.36,-0.28 0.29,-0.16 0.49,-0.32 0.85,-0.47 0.5,-0.21 0.84,-0.32 1.39,-0.41 0.14,-0.02 0.26,-0.03 0.41,-0.05 0.67,-0.1 1.72,0.11 2.32,0.35 0.31,0.13 0.36,0.17 0.62,0.29 0.92,0.45 1.73,1.37 2.19,2.29 0.11,0.21 0.18,0.42 0.26,0.65 0.15,0.45 0.26,0.95 0.26,1.55 0,1.36 -0.39,2.52 -1.25,3.51l-0.23 0.25c-0.3,0.3 -0.43,0.41 -0.78,0.66l-0.54 0.33c-0,0 -0.01,0.01 -0.01,0.01 -0.04,0.03 -0.01,0.01 -0.04,0.03zm5.13 -3.2c0,-0.17 0.07,-0.49 0.07,-0.8 -0,-0.7 0.02,-0.9 -0.11,-1.62 -0.05,-0.25 -0.1,-0.49 -0.16,-0.72 -0.15,-0.55 -0.27,-0.78 -0.46,-1.26 -0.28,-0.67 -0.9,-1.61 -1.34,-2.14l-0.3 -0.35c-0.05,-0.05 -0.05,-0.07 -0.1,-0.12 -0.07,-0.08 -0.14,-0.13 -0.21,-0.22 -0.31,-0.41 -1.44,-1.34 -1.85,-1.65l-0.19 -0.14c-0.02,-0.01 -0.05,-0.04 -0.07,-0.05l-0.17 -0.13c-0.85,-0.63 -1.99,-1.62 -2.95,-1.97 -0.23,-0.08 -0.49,-0.09 -0.74,-0.03 -0.46,0.12 -0.67,0.3 -0.9,0.63l-0.27 0.38c-0.06,0.09 -0.12,0.16 -0.18,0.25l-1.62 2.31c-0.06,0.09 -0.12,0.16 -0.18,0.25 -0.07,0.1 -0.33,0.45 -0.35,0.53 -0.07,0.05 -0.2,0.25 -0.24,0.34 -0.18,-0.1 -0.9,-0.67 -1.16,-0.86 -0.34,-0.26 -1.28,-0.92 -1.62,-1.06 -0.21,-0.08 -0.47,-0.14 -0.71,-0.09 -0.29,0.07 -0.4,-0.04 -0.84,0.33 -0.05,0.04 -0.11,0.13 -0.15,0.18 -0.4,0.51 -0.46,1.28 -0.11,1.82 0.11,0.16 0.19,0.24 0.32,0.35 0.12,0.11 0.25,0.2 0.27,0.43 0,0.46 -0.45,0.68 -0.85,0.39 -0.07,-0.05 -0.12,-0.08 -0.18,-0.13 -0.56,-0.43 -1.22,-0.86 -1.8,-1.3 -0.59,-0.44 -1.34,-0.68 -1.99,-0.22 -0.04,0.03 -0.04,0.03 -0.08,0.06l-0.05 0.05c-0.37,0.38 -0.61,0.73 -0.52,1.38 0.11,0.81 0.8,1.16 1.44,1.61l1.09 0.78c0.26,0.19 2.81,1.99 2.87,2.07l-0.51 0.73c-0.09,0.12 -0.64,0.87 -0.66,0.97 0.07,0.02 0.13,0.08 0.19,0.12 0.07,0.05 0.12,0.09 0.19,0.14l3.48 2.57c0.26,0.2 0.5,0.37 0.79,0.56 0.14,0.1 0.26,0.17 0.41,0.26 0.15,0.09 0.27,0.16 0.43,0.25 0.15,0.09 0.28,0.15 0.44,0.23 0.15,0.08 0.29,0.16 0.45,0.22 0.32,0.13 0.61,0.26 0.95,0.37 0.33,0.11 0.67,0.22 1.04,0.3 0.75,0.16 1.32,0.22 2.08,0.23l0.08 0c0.12,-0 0.17,-0.02 0.27,-0.02 1.23,-0.06 2.15,-0.37 3.13,-0.9 0.15,-0.08 0.73,-0.44 0.8,-0.54 0.09,-0.03 0.31,-0.24 0.39,-0.31 0.48,-0.45 0.6,-0.55 1.03,-1.13 0.21,-0.28 0.39,-0.57 0.56,-0.88 0.06,-0.11 0.11,-0.19 0.17,-0.31 0.11,-0.22 0.2,-0.44 0.29,-0.67 0.13,-0.32 0.26,-0.76 0.33,-1.11 0.03,-0.12 0.04,-0.28 0.08,-0.39zm-10.62 -1.57c0,0.88 0.27,1.63 0.88,2.21l0.2 0.17c0.07,0.06 0.13,0.1 0.21,0.15 1.05,0.7 2.46,0.68 3.51,0.01 1.79,-1.15 1.85,-3.71 0.06,-4.9 -0.87,-0.58 -1.96,-0.67 -2.95,-0.27 -0.51,0.2 -0.96,0.54 -1.29,0.96 -0.22,0.28 -0.3,0.46 -0.43,0.77 -0,0.01 -0.01,0.01 -0.01,0.02 -0.09,0.22 -0.17,0.64 -0.17,0.88z"/>
  <path class="fil1" d="M41.72 11.21c0,-0.35 -0.05,-0.45 0.27,-0.68 0.27,-0.19 0.74,-0.35 1.09,-0.12 0.1,0.07 0.14,0.19 0.18,0.31 0.07,0.23 0.05,0.63 0.05,0.92 0,2.07 -0.18,1.67 0.42,1.67 0.12,0 0.2,0.02 0.44,0.02 0.09,-0.19 0.03,-0.57 0.02,-0.8 -0.01,-0.29 0,-0.6 0,-0.89 0,-0.18 -0.01,-0.37 -0,-0.55 0,-0.18 0.05,-0.31 0.14,-0.41 0.18,-0.18 0.4,-0.39 0.72,-0.4 0.2,-0 0.34,0.02 0.47,0.08 0.31,0.15 0.25,1.08 0.25,1.41 0,0.17 0.01,0.35 -0.01,0.5 -0.02,0.17 0,0.35 -0.01,0.52 -0.04,0.67 -0.05,0.51 0.44,0.51 0.11,-0 0.39,0.07 0.45,-0.02 0.06,-0.09 0.02,-0.33 0.02,-0.47 0,-0.35 0,-0.7 0,-1.05 0,-0.69 0.16,-1.86 -0.58,-2.16 -0.57,-0.23 -1.13,-0.07 -1.59,0.27 -0.14,0.1 -0.26,0.23 -0.37,0.35 -0.12,-0.5 -0.71,-0.78 -1.18,-0.74 -0.42,0.03 -0.72,0.22 -1.02,0.44 -0.09,0.07 -0.16,0.17 -0.25,0.23l-0.13 -0.55c-0.15,0 -0.31,0.06 -0.44,0.09 -0.12,0.02 -0.38,0.04 -0.47,0.08l0.11 0.67c0.03,0.2 0.06,0.5 0.06,0.73 0,0.29 -0.04,1.99 0.02,2.11 0.1,0.05 0.59,0.03 0.74,0.02 0.21,-0.01 0.15,-0.27 0.15,-0.61 0,-0.51 0,-1.01 0,-1.52zm19.13 -2.02c0,-0.23 0.08,-1.26 0.02,-1.37 -0.03,-0.03 -0.79,0.04 -0.91,0.04 -0.06,0.09 -0.08,0.11 -0.05,0.27l0.03 1.07c0,0.2 0.02,0.34 0.02,0.55 -0,0.21 0.02,0.35 0.02,0.57 0,0.4 0,0.8 0,1.2l0 1.69c0.02,0.13 0.05,0.13 0.21,0.13 0.14,-0 0.18,0.02 0.32,0.02 0.11,0 0.23,-0 0.34,-0l0.06 -0.07 0 -1.01c1.01,0 0.87,-0.1 1.13,0.29 0.11,0.16 0.28,0.42 0.37,0.59 0.07,0.14 0.12,0.17 0.29,0.2 0.2,0.03 0.68,-0.03 0.88,-0.08 -0.02,-0.08 -0.14,-0.22 -0.2,-0.29l-0.08 -0.11c-0.15,-0.2 -0.47,-0.63 -0.48,-0.85 0.19,-0.1 0.15,-0.05 0.39,-0.21 0.12,-0.08 0.23,-0.18 0.29,-0.3 0.19,-0.13 0.39,-0.92 0.11,-1.42 -0.33,-0.6 -1.23,-0.73 -1.85,-0.46 -0.24,0.11 -0.58,0.33 -0.79,0.51 -0.06,0.05 -0.03,0.06 -0.12,0.07l0 -1.02zm-35.22 2.04l0 -1.42c0,-0.18 0.02,-0.29 0.02,-0.49 0,-0.18 0,-0.35 0,-0.53 0.26,-0.17 0.46,-0.11 0.85,-0.11 0.8,0 1.28,0.17 1.7,0.84 0.07,0.11 0.08,0.15 0.12,0.26 0,0.01 0.02,0.04 0.02,0.04l0.02 0.04c0.01,0.1 0.08,0.28 0.08,0.47 0.02,0.48 0.01,0.74 -0.17,1.18 -0.03,0.06 -0.07,0.15 -0.08,0.21 -0.06,0.05 -0.14,0.23 -0.24,0.34l-0.33 0.26c-0.29,0.19 -0.49,0.21 -0.96,0.21 -1.13,0 -1.02,0.13 -1.02,-0.74l-0.02 -0.57zm-0.95 2.09c0.11,0.05 0.55,-0 0.72,0 0.26,0 0.52,0 0.78,0 0.82,0 1.28,0.13 1.98,-0.28 0.08,-0.05 0.15,-0.1 0.22,-0.16 0.18,-0.16 0.15,-0.11 0.3,-0.29 0.19,-0.23 0.46,-0.56 0.52,-0.86 0.04,-0.04 0.05,-0.12 0.07,-0.18 0.03,-0.08 0.04,-0.13 0.06,-0.22 0.1,-0.41 0.13,-1.19 -0,-1.46 -0.03,-0.33 -0.36,-0.93 -0.63,-1.21 -0.12,-0.12 -0.19,-0.2 -0.33,-0.31 -0.51,-0.38 -1.36,-0.47 -2.04,-0.47 -0.26,0 -1.53,-0.04 -1.65,0.02 -0,0.49 -0.08,5.26 0,5.42zm23.49 -2.03l-0.04 -0.79c-0,-0.17 0.06,-0.66 0,-0.78 -0.1,-0.05 -0.69,-0.05 -0.83,-0.02 -0.11,0.24 -0.08,1.28 -0.02,1.57 0.02,0.27 0.36,0.81 0.49,1.03 0.04,0.08 0.1,0.16 0.15,0.24 0.12,0.2 0.31,0.54 0.45,0.69 0.08,0.08 0.1,0.13 0.25,0.13 0.45,0.02 0.45,0.02 0.73,-0.41l0.44 -0.71c0.1,-0.16 0.08,-0.19 0.17,-0.22 0.02,0.1 0.34,0.56 0.42,0.68 0.07,0.13 0.38,0.57 0.49,0.63 0.08,0.04 0.25,0.02 0.36,0.02 0.23,-0 0.27,-0.1 0.42,-0.32 0.03,-0.04 0.04,-0.07 0.07,-0.12l0.78 -1.3c0.05,-0.08 0.1,-0.14 0.1,-0.27 0.06,-0.13 0.07,-1.37 0,-1.65 -0.17,-0.04 -0.43,-0.02 -0.64,-0.02 -0.12,-0 -0.22,-0.02 -0.23,0.09l0.04 0.61c-0,0.11 0,0.23 0,0.34 0,0.42 -0.04,0.45 -0.04,0.64 -0.1,0.18 -0.08,0.24 -0.26,0.54 -0.05,0.09 -0.1,0.17 -0.16,0.25 -0.06,0.08 -0.09,0.17 -0.17,0.23 -0.15,-0.1 -0.54,-0.79 -0.61,-0.85 -0.07,-0.3 -0.15,0.08 -0.15,-0.89 0,-0.19 0.05,-0.89 0,-0.99 -0.11,-0.05 -0.72,-0.03 -0.85,0 -0.01,0.13 -0.01,0.08 -0,0.21l0.02 0.76c0,0.36 0,0.67 -0.13,0.91 -0.14,0.27 -0.24,0.42 -0.4,0.66 -0.05,0.07 -0.1,0.14 -0.15,0.21 -0.09,-0.06 -0.22,-0.26 -0.29,-0.36l-0.18 -0.27c-0.09,-0.14 -0.18,-0.29 -0.23,-0.46zm-18.12 0.35c0,0.13 -0.02,0.24 -0.02,0.41 0,0.22 -0.03,1.22 0.02,1.27 0.1,0.05 0.77,0.05 0.87,0 0.05,-0.11 -0,-0.65 0,-0.82 0,-0.17 -0.02,-0.25 -0.02,-0.4 0,-0.15 0,-0.3 0,-0.45 0,-0.62 -0.04,-1.15 0.72,-1.12 0.2,0.01 0.35,0.07 0.55,0.02 0.04,-0.18 0.13,-0.82 0.04,-0.91 -0.1,-0.1 -0.69,-0.02 -0.94,0.12 -0.11,0.07 -0.32,0.23 -0.44,0.26 -0.13,-0.26 0.04,-0.5 -0.21,-0.44 -0.84,0.18 -0.8,0.01 -0.72,0.36 0.12,0.49 0.14,1.1 0.14,1.71zm27.24 -0.02c0,0.27 -0.04,1.57 0.02,1.7 0.12,0.06 0.47,0.02 0.64,0.02 0.21,0 0.3,0.05 0.25,-0.4 -0.02,-0.18 -0,-0.44 -0.03,-0.62 -0.03,-0.19 -0.01,-0.47 -0.01,-0.68 0,-0.38 -0.02,-0.82 0.2,-0.98 0.3,-0.23 0.62,-0.09 1.03,-0.09 0.06,-0.09 0.06,-0.04 0.08,-0.18 0.01,-0.07 0.06,-0.71 0.01,-0.75 -0.18,-0.09 -0.61,-0.02 -0.78,0.05 -0.2,0.08 -0.53,0.31 -0.6,0.33 -0.09,-0.16 -0.03,-0.32 -0.11,-0.47 -0.37,0.09 -0.69,0.11 -0.87,0.15 0,0.1 0.02,0.14 0.04,0.21 0.12,0.53 0.11,0.7 0.13,1.21 0.01,0.18 0.05,0.31 0,0.5zm-17.88 -0.04c-0.02,0.31 -0.16,0.49 -0.32,0.7 -0.02,0.03 -0.03,0.04 -0.06,0.07 -0.04,0.04 0,0 -0.03,0.03 -0.02,0.01 -0.03,0.02 -0.04,0.03 -0.42,0.3 -1.04,0.23 -1.31,-0.09 -0.04,-0.05 -0.06,-0.08 -0.11,-0.14 -0.1,-0.11 -0.17,-0.28 -0.2,-0.43l-0.03 -0.1c0,-0.23 -0,-0.38 0.04,-0.55 0.1,-0.43 0.5,-0.79 0.98,-0.8 0.52,-0.01 0.88,0.33 1.02,0.76 0.06,0.19 0.06,0.27 0.06,0.53zm-2.92 0.06c0,0.5 0.27,0.94 0.59,1.26 0.53,0.53 1.37,0.7 2.09,0.34 0.35,-0.17 0.75,-0.58 0.91,-0.95 0.09,-0.22 0.18,-0.5 0.18,-0.75 0,-0.53 -0.12,-0.95 -0.43,-1.32 -0.04,-0.05 -0.07,-0.09 -0.11,-0.14 -0.16,-0.17 -0.35,-0.31 -0.57,-0.42 -0.48,-0.24 -1.16,-0.24 -1.62,0.02 -0.2,0.12 -0.43,0.26 -0.57,0.45 -0.18,0.23 -0.27,0.36 -0.37,0.64 -0.07,0.2 -0.15,0.63 -0.09,0.88zm-1.14 0c-0.06,0.3 -0.18,0.51 -0.36,0.7 -0.54,0.54 -1.73,0.29 -1.73,-0.99 0.09,-1.11 1.32,-1.43 1.89,-0.61 0.08,0.11 0.14,0.26 0.18,0.4 0.03,0.09 0.02,0.13 0.03,0.24 0.01,0.09 -0.01,0.13 -0.01,0.26zm-2.92 -0.29c0,0.34 0.01,0.58 0.11,0.83 0.11,0.27 0.19,0.38 0.37,0.59 0.34,0.39 0.69,0.58 1.26,0.65 0.55,0.06 1.1,-0.18 1.44,-0.56l0.17 -0.19c0.08,-0.11 0.13,-0.17 0.19,-0.3 0.06,-0.12 0.1,-0.19 0.14,-0.33 0.04,-0.14 0.06,-0.26 0.09,-0.4 0,-0.53 -0.05,-0.92 -0.35,-1.33 -0.17,-0.23 -0.38,-0.45 -0.63,-0.59 -1,-0.56 -2.1,-0.14 -2.62,0.9 -0.1,0.19 -0.16,0.51 -0.16,0.74zm21.38 0.15c0.01,-0.28 0.07,-0.62 0.26,-0.82 0.61,-0.65 1.4,-0.45 1.74,0.24 0.07,0.15 0.08,0.26 0.12,0.43 0,0.39 -0.09,0.61 -0.26,0.84 -0.18,0.24 -0.39,0.4 -0.72,0.41 -0.27,0.01 -0.46,-0.03 -0.66,-0.17 -0.08,-0.06 -0.22,-0.22 -0.27,-0.3 -0.08,-0.1 -0.14,-0.25 -0.17,-0.38 -0.03,-0.11 -0.01,-0.15 -0.03,-0.22l-0.01 -0.03zm2.94 -0.15c0,-0.55 -0.24,-0.97 -0.59,-1.32 -0.27,-0.27 -0.52,-0.44 -0.92,-0.52 -0.73,-0.15 -1.31,0.13 -1.75,0.58 -0.37,0.37 -0.51,0.88 -0.51,1.41 0,0.56 0.2,0.99 0.57,1.36 0.19,0.19 0.29,0.28 0.56,0.41 0.69,0.32 1.66,0.13 2.13,-0.48 0.07,-0.1 0.14,-0.17 0.21,-0.28 0.06,-0.1 0.13,-0.22 0.17,-0.32 0.11,-0.28 0.13,-0.45 0.13,-0.84zm5.61 0.15c-0.3,0.14 -0.96,0.16 -1.34,0.11 -0.1,-0.01 -0.11,0.02 -0.12,-0.09 0,-0.55 -0.08,-0.5 0.35,-0.84 0.2,-0.16 0.49,-0.36 0.82,-0.37 0.98,-0.03 0.77,0.75 0.63,0.93 -0.11,0.14 -0.2,0.17 -0.33,0.26z"/>
 </g>
</svg>
